<svg width="32" height="32" viewBox="0 0 32 32" fill="none" xmlns="http://www.w3.org/2000/svg">
<path d="M28.5 22.8671C28.1361 23.005 27.7344 23.0046 27.3706 22.8664C27.007 22.728 26.7065 22.4613 26.5261 22.1165C25.3933 20.4206 24.1423 18.8013 22.9399 17.1471L22.4185 16.4521C20.9868 18.3704 19.555 20.2121 18.2484 22.1235C18.0781 22.453 17.794 22.7094 17.4488 22.8449C17.1035 22.9805 16.7208 22.9859 16.3719 22.8603L21.7444 15.6529L16.7471 9.14045C17.1069 9.01056 17.5004 9.00878 17.8613 9.1354C18.2221 9.26203 18.5283 9.5093 18.728 9.83548C19.8886 11.5313 21.1745 13.1508 22.4533 14.8675C23.7391 13.1646 25.011 11.5383 26.1995 9.85633C26.3706 9.53218 26.655 9.28225 26.9985 9.1541C27.3419 9.02595 27.7205 9.02851 28.0621 9.1613L26.123 11.7329C25.2543 12.8796 24.3994 14.0334 23.4959 15.1524C23.423 15.2176 23.3648 15.2974 23.3249 15.3866C23.285 15.4759 23.2644 15.5725 23.2644 15.6703C23.2644 15.7679 23.285 15.8645 23.3249 15.9538C23.3648 16.043 23.423 16.1228 23.4959 16.188C25.157 18.3913 26.8041 20.6014 28.5 22.8671Z" fill="white"/>
<path d="M3.5 15.5625C3.64595 14.8675 3.73631 14.1099 3.93786 13.401C5.14025 9.12661 10.0402 7.34735 13.411 9.9954C15.3849 11.5453 15.8784 13.7416 15.7811 16.2159H4.66069C4.47999 20.6363 7.67014 23.3051 11.7499 21.9429C12.4117 21.7061 13.0041 21.3084 13.4738 20.7854C13.9434 20.2624 14.2752 19.6306 14.4396 18.9473C14.6551 18.2523 15.0026 18.1341 15.6629 18.3356C15.5541 19.1818 15.255 19.9923 14.7879 20.7061C14.3209 21.42 13.698 22.0186 12.9663 22.4571C11.7572 23.1184 10.37 23.3803 9.00309 23.2055C7.63617 23.0308 6.35954 22.4283 5.35571 21.4841C4.36264 20.3675 3.76216 18.9568 3.64595 17.4669C3.64595 17.2306 3.5556 16.9943 3.50695 16.7719C3.50231 16.3595 3.5 15.9564 3.5 15.5625ZM4.67459 15.2636H14.7316C14.669 12.0596 12.6465 9.78689 9.94983 9.76604C6.94731 9.72434 4.7997 11.9484 4.66764 15.2498L4.67459 15.2636Z" fill="white"/>
</svg>
