<svg width="32" height="32" viewBox="0 0 32 32" fill="none" xmlns="http://www.w3.org/2000/svg">
<mask id="mask0_189_33" style="mask-type:luminance" maskUnits="userSpaceOnUse" x="7" y="3" width="18" height="26">
<path d="M24.295 3.5H7.625V28.5H24.295V3.5Z" fill="white"/>
</mask>
<g mask="url(#mask0_189_33)">
<path d="M11.7934 28.5C14.0934 28.5 15.96 26.6334 15.96 24.3334V20.1666H11.7934C9.49338 20.1666 7.62671 22.0334 7.62671 24.3334C7.62671 26.6334 9.49338 28.5 11.7934 28.5Z" fill="#0ACF83"/>
<path d="M7.62671 16C7.62671 13.7 9.49338 11.8333 11.7934 11.8333H15.96V20.1666H11.7934C9.49338 20.1666 7.62671 18.3 7.62671 16Z" fill="#A259FF"/>
<path d="M7.62671 7.66666C7.62671 5.36666 9.49338 3.5 11.7934 3.5H15.96V11.8333H11.7934C9.49338 11.8333 7.62671 9.96666 7.62671 7.66666Z" fill="#F24E1E"/>
<path d="M15.9601 3.5H20.1267C22.4267 3.5 24.2935 5.36666 24.2935 7.66666C24.2935 9.96666 22.4267 11.8333 20.1267 11.8333H15.9601V3.5Z" fill="#FF7262"/>
<path d="M24.2935 16C24.2935 18.3 22.4267 20.1666 20.1267 20.1666C17.8267 20.1666 15.9601 18.3 15.9601 16C15.9601 13.7 17.8267 11.8333 20.1267 11.8333C22.4267 11.8333 24.2935 13.7 24.2935 16Z" fill="#1ABCFE"/>
</g>
</svg>
