<svg width="32" height="32" viewBox="0 0 32 32" fill="none" xmlns="http://www.w3.org/2000/svg">
<path d="M16.0001 3.75C9.09739 3.75 3.5 9.34635 3.5 16.2501C3.5 21.773 7.08166 26.4585 12.0483 28.1114C12.673 28.2271 12.9024 27.8402 12.9024 27.5101C12.9024 27.212 12.8908 26.2274 12.8854 25.1829C9.40789 25.939 8.67409 23.708 8.67409 23.708C8.10546 22.2631 7.28617 21.879 7.28617 21.879C6.15204 21.1031 7.37166 21.1191 7.37166 21.1191C8.62689 21.2073 9.28782 22.4072 9.28782 22.4072C10.4027 24.3182 12.2121 23.7657 12.9254 23.4464C13.0376 22.6384 13.3615 22.087 13.719 21.7749C10.9426 21.4588 8.02391 20.3869 8.02391 15.5972C8.02391 14.2325 8.51221 13.1174 9.31184 12.242C9.18205 11.9272 8.75419 10.6558 9.43294 8.93402C9.43294 8.93402 10.4826 8.59806 12.8714 10.2153C13.8685 9.93836 14.9378 9.79947 16.0001 9.79471C17.0624 9.79947 18.1326 9.93836 19.1315 10.2153C21.5174 8.59806 22.5656 8.93402 22.5656 8.93402C23.246 10.6558 22.818 11.9272 22.6881 12.242C23.4896 13.1174 23.9746 14.2325 23.9746 15.5972C23.9746 20.3984 21.0504 21.4555 18.2669 21.7649C18.7152 22.1529 19.1147 22.9135 19.1147 24.0798C19.1147 25.7523 19.1003 27.0984 19.1003 27.5101C19.1003 27.8427 19.3253 28.2325 19.9589 28.1098C24.9229 26.455 28.5 21.7711 28.5 16.2501C28.5 9.34635 22.9034 3.75 16.0001 3.75ZM8.1817 21.5566C8.15416 21.6188 8.05646 21.6374 7.96745 21.5947C7.87679 21.554 7.82586 21.4692 7.85526 21.407C7.88217 21.343 7.98008 21.3253 8.07054 21.3681C8.16141 21.4089 8.21316 21.4944 8.1817 21.5566ZM8.79656 22.1052C8.73695 22.1606 8.62041 22.1349 8.54134 22.0475C8.45958 21.9604 8.44425 21.8439 8.5047 21.7878C8.56617 21.7325 8.6792 21.7584 8.76116 21.8455C8.84293 21.9338 8.85886 22.0494 8.79656 22.1052ZM9.21839 22.8072C9.1418 22.8605 9.01656 22.8106 8.93915 22.6994C8.86255 22.5883 8.86255 22.455 8.9408 22.4015C9.01842 22.3481 9.1418 22.3961 9.22025 22.5065C9.29663 22.6195 9.29663 22.7529 9.21839 22.8072ZM9.93178 23.6203C9.86326 23.6958 9.71733 23.6755 9.61051 23.5724C9.50123 23.4716 9.47079 23.3286 9.53951 23.253C9.60886 23.1773 9.75562 23.1986 9.86326 23.3009C9.97172 23.4014 10.0048 23.5455 9.93178 23.6203ZM10.8538 23.8946C10.8235 23.9926 10.683 24.0371 10.5414 23.9955C10.4 23.9526 10.3075 23.838 10.3361 23.739C10.3655 23.6405 10.5066 23.5941 10.6493 23.6386C10.7904 23.6812 10.8832 23.7951 10.8538 23.8946ZM11.903 24.0111C11.9065 24.1141 11.7865 24.1996 11.6379 24.2015C11.4884 24.2049 11.3675 24.1214 11.3659 24.02C11.3659 23.9159 11.4832 23.8313 11.6327 23.8288C11.7813 23.8259 11.903 23.9086 11.903 24.0111ZM12.9338 23.9716C12.9516 24.0721 12.8484 24.1755 12.7008 24.203C12.5556 24.2295 12.4213 24.1674 12.4029 24.0676C12.3849 23.9645 12.49 23.8612 12.6349 23.8345C12.7828 23.8089 12.915 23.8694 12.9338 23.9716Z" fill="white"/>
</svg>
