<svg width="32" height="32" viewBox="0 0 32 32" fill="none" xmlns="http://www.w3.org/2000/svg">
<path d="M18.341 2.25C18.1465 2.25 17.9659 2.29278 17.7991 2.34981C18.1535 2.59224 18.348 2.91308 18.4453 3.2767C18.4523 3.32661 18.4661 3.36226 18.473 3.41216C18.48 3.45495 18.487 3.49773 18.487 3.54051C18.5148 4.16794 18.3271 4.24636 18.1951 4.61711C17.9936 5.09483 18.0493 5.60818 18.2924 6.0217C18.3133 6.07161 18.341 6.12865 18.3758 6.17856C18.1118 4.3747 19.5778 4.10376 19.8488 3.54051C19.8695 3.04855 19.4735 2.72058 19.1609 2.49241C18.8621 2.30704 18.5911 2.25 18.341 2.25ZM20.5505 2.6564C20.5226 2.82039 20.5435 2.77761 20.5366 2.86318C20.5296 2.92021 20.5296 2.99151 20.5226 3.04855C20.5088 3.10559 20.4949 3.16263 20.474 3.21966C20.4601 3.2767 20.4393 3.33374 20.4185 3.39078C20.3906 3.44783 20.3699 3.49773 20.342 3.55476C20.3213 3.5833 20.3073 3.6118 20.2865 3.64033C20.2726 3.66171 20.2586 3.6831 20.2448 3.7045C20.21 3.75441 20.1753 3.80431 20.1405 3.84709C20.0989 3.88988 20.0641 3.93978 20.0155 3.97544C20.0155 3.98258 20.0155 3.98258 20.0155 3.98258C19.9738 4.01823 19.9321 4.061 19.8835 4.09665C19.7376 4.21073 19.5709 4.29629 19.418 4.40324C19.3694 4.43888 19.3208 4.4674 19.279 4.51018C19.2304 4.54583 19.1888 4.58148 19.147 4.62426C19.0984 4.66704 19.0636 4.70981 19.022 4.75973C18.9873 4.80251 18.9455 4.85241 18.9178 4.90233C18.883 4.95224 18.8483 5.00214 18.8205 5.05205C18.7926 5.10909 18.7719 5.159 18.744 5.21604C18.7233 5.27308 18.7024 5.32299 18.6885 5.38003C18.6676 5.44419 18.6538 5.50124 18.6399 5.55828C18.6329 5.5868 18.6329 5.62244 18.6259 5.65096C18.619 5.67949 18.619 5.708 18.612 5.73653C18.612 5.79356 18.6051 5.85773 18.6051 5.91476C18.6051 5.95755 18.6051 6.00033 18.612 6.0431C18.612 6.10014 18.619 6.15718 18.6329 6.22135C18.6399 6.27839 18.6538 6.33543 18.6676 6.39246C18.6885 6.4495 18.7024 6.50655 18.7233 6.56359C18.7371 6.59924 18.758 6.63489 18.7719 6.6634L17.1739 6.02884C16.9029 5.95041 16.6389 5.87911 16.3679 5.81495C16.222 5.7793 16.0761 5.74365 15.9301 5.708C15.5133 5.62244 15.0895 5.55828 14.6656 5.5155C14.6518 5.5155 14.6449 5.50835 14.6309 5.50835C14.214 5.46558 13.8041 5.44419 13.3873 5.44419C13.0815 5.44419 12.7759 5.45844 12.4771 5.47984C12.0533 5.50836 11.6295 5.56539 11.2056 5.63669C11.1014 5.65094 10.9972 5.67234 10.893 5.69374C10.6776 5.73651 10.4692 5.78643 10.2677 5.83633C10.1635 5.86486 10.0593 5.89336 9.95503 5.92189C9.85081 5.96466 9.75354 6.01458 9.65626 6.05735C9.57984 6.093 9.50342 6.12865 9.42699 6.1643C9.4131 6.17144 9.39919 6.17144 9.39225 6.17855C9.32278 6.2142 9.26024 6.24271 9.19772 6.27838C9.17688 6.28551 9.16298 6.29261 9.14908 6.29976C9.07265 6.33541 8.99623 6.37819 8.9337 6.41384C8.88506 6.43523 8.83643 6.46375 8.79474 6.48514C8.7739 6.49939 8.7461 6.51366 8.73221 6.52079C8.66968 6.55644 8.60715 6.59209 8.55156 6.62774C8.48904 6.66339 8.43345 6.69903 8.38481 6.73468C8.33618 6.77034 8.28755 6.79885 8.24587 6.8345C8.2389 6.84164 8.23198 6.84164 8.22501 6.84875C8.18333 6.87728 8.13469 6.91291 8.093 6.94856C8.093 6.94856 8.08605 6.9557 8.07913 6.96281C8.04439 6.99135 8.00964 7.01985 7.9749 7.04838C7.96101 7.05551 7.9471 7.06976 7.93321 7.0769C7.89848 7.10544 7.86374 7.14108 7.829 7.16959C7.82204 7.18384 7.80815 7.19099 7.8012 7.19813C7.75951 7.2409 7.71783 7.27655 7.67614 7.31934C7.66918 7.31934 7.66918 7.32648 7.66225 7.33358C7.62056 7.36923 7.57888 7.41201 7.53719 7.45479C7.53023 7.46193 7.53023 7.46904 7.5233 7.46904C7.48856 7.50469 7.45383 7.54034 7.41909 7.58311C7.4052 7.59736 7.38435 7.61165 7.37045 7.62589C7.33571 7.66868 7.29403 7.71145 7.25234 7.75424C7.24538 7.76848 7.2315 7.77563 7.22454 7.78988C7.16895 7.84693 7.12031 7.90396 7.06474 7.961C7.05778 7.96814 7.05085 7.97525 7.04389 7.98239C6.93273 8.1036 6.81461 8.2248 6.68955 8.33175C6.56449 8.44583 6.43249 8.55278 6.30048 8.64546C6.16151 8.74529 6.0295 8.83084 5.8836 8.9164C5.74464 8.99483 5.59874 9.06613 5.44589 9.1303C5.29998 9.19446 5.14713 9.25152 4.99428 9.30142C4.70246 9.36559 4.40371 9.48679 4.14664 9.50818C4.09105 9.50818 4.02853 9.52243 3.97294 9.52957C3.91041 9.54382 3.85483 9.5581 3.79925 9.57235C3.74366 9.59374 3.68808 9.61513 3.6325 9.63652C3.57691 9.65792 3.52134 9.68643 3.46575 9.71495C3.41711 9.7506 3.36154 9.77911 3.3129 9.81476C3.26426 9.85041 3.21563 9.89319 3.17394 9.93598C3.12531 9.97163 3.07668 10.0215 3.03499 10.0643C2.9933 10.1142 2.95161 10.157 2.91688 10.2069C2.88214 10.264 2.84045 10.3139 2.81265 10.3709C2.77791 10.4208 2.74318 10.4778 2.71539 10.5349C2.68758 10.5991 2.6598 10.6561 2.63895 10.7203C2.61811 10.7773 2.59726 10.8415 2.57643 10.9056C2.56254 10.9627 2.54863 11.0197 2.54169 11.0768C2.54169 11.0839 2.53472 11.091 2.53472 11.0981C2.52084 11.1623 2.52084 11.2479 2.51389 11.2907C2.50692 11.3406 2.5 11.3833 2.5 11.4333C2.5 11.4618 2.5 11.4974 2.50696 11.5259C2.51391 11.5759 2.52084 11.6186 2.53476 11.6614C2.54865 11.7042 2.56256 11.747 2.58339 11.7898C2.58339 11.7969 2.58339 11.7969 2.58339 11.7969C2.60424 11.8397 2.63203 11.8824 2.65983 11.9252C2.68763 11.968 2.7154 12.0108 2.75014 12.0536C2.78489 12.0892 2.82658 12.132 2.86826 12.1676C2.90994 12.2104 2.95164 12.2461 3.00026 12.2817C3.16701 12.4314 3.2087 12.4814 3.42409 12.5954C3.45883 12.6169 3.49356 12.6311 3.53525 12.6525C3.54221 12.6525 3.54914 12.6596 3.5561 12.6596C3.5561 12.6739 3.5561 12.681 3.56305 12.6953C3.57001 12.7523 3.5839 12.8094 3.59779 12.8664C3.61168 12.9305 3.63254 12.9876 3.65338 13.0375C3.67423 13.0803 3.68811 13.123 3.70896 13.1659C3.71593 13.1801 3.72285 13.1944 3.7298 13.2015C3.75761 13.2585 3.78539 13.3084 3.81318 13.3584C3.84791 13.4083 3.88265 13.4581 3.9174 13.5081C3.95214 13.5509 3.99383 13.6008 4.03551 13.6435C4.0772 13.6864 4.11889 13.722 4.16751 13.7648C4.16751 13.7648 4.17448 13.7719 4.1814 13.7719C4.22309 13.8075 4.26478 13.8433 4.30646 13.8718C4.3551 13.9074 4.40374 13.9359 4.45931 13.9644C4.50795 13.9929 4.56354 14.0214 4.61911 14.0429C4.6608 14.0643 4.70944 14.0785 4.75808 14.0928C4.76504 14.0999 4.77196 14.0999 4.78588 14.107C4.81368 14.1141 4.8484 14.1213 4.8762 14.1284C4.85535 14.5134 4.8484 14.877 4.904 15.0054C4.96653 15.148 5.27224 14.713 5.57794 14.2139C5.53625 14.7059 5.50846 15.2834 5.57794 15.4545C5.65436 15.6328 6.07124 15.0766 6.43253 14.4635C11.3586 13.2941 15.8538 16.7879 16.3263 21.7218C16.2359 20.9516 15.3119 20.5239 14.888 20.6309C14.6796 21.1584 14.3253 21.8358 13.7555 22.2564C13.8043 21.7859 13.7834 21.301 13.6861 20.8305C13.5333 21.4864 13.2345 22.0996 12.8245 22.6271C12.1645 22.6771 11.5045 22.3491 11.1571 21.8571C11.1293 21.8358 11.1223 21.793 11.1015 21.7645C11.0806 21.7145 11.0598 21.6646 11.0459 21.6148C11.0251 21.5649 11.0112 21.5149 11.0042 21.465C10.9973 21.4151 10.9973 21.3653 10.9973 21.3081C10.9973 21.2725 10.9973 21.2369 10.9973 21.2013C11.0042 21.1513 11.0181 21.1014 11.032 21.0515C11.0459 21.0016 11.0598 20.9516 11.0806 20.9018C11.1084 20.8519 11.1293 20.802 11.164 20.752C11.2821 20.4098 11.2821 20.1318 11.0667 19.9678C11.025 19.9393 10.9834 19.9179 10.9347 19.8965C10.9069 19.8893 10.8722 19.875 10.8444 19.8679C10.8236 19.8608 10.8097 19.8536 10.7888 19.8465C10.7402 19.8323 10.6915 19.818 10.6429 19.8109C10.5943 19.7966 10.5456 19.7895 10.497 19.7895C10.4484 19.7824 10.3928 19.7753 10.3442 19.7753C10.3094 19.7753 10.2747 19.7824 10.2399 19.7824C10.1844 19.7824 10.1357 19.7895 10.0871 19.8038C10.0384 19.8109 9.98982 19.818 9.94118 19.8323C9.89254 19.8465 9.8439 19.8609 9.79526 19.8823C9.74664 19.9036 9.70495 19.925 9.65632 19.9464C9.61463 19.9678 9.57294 19.9963 9.5243 20.0176C7.90545 21.1014 8.8712 23.6396 9.97591 24.374C9.55904 24.4525 9.13523 24.5451 9.01712 24.6379C9.01015 24.645 9.00323 24.6521 9.00323 24.6521C9.30199 24.8375 9.61464 24.9944 9.94119 25.1298C10.3859 25.2795 10.8583 25.415 11.0667 25.472V25.4791C11.6434 25.6004 12.227 25.6431 12.8176 25.6075C15.8955 25.3865 18.4175 22.9838 18.8761 19.818C18.89 19.8823 18.9039 19.9393 18.9178 20.0034C18.9386 20.1318 18.9664 20.2673 18.9804 20.4026C18.9804 20.4026 18.9804 20.4026 18.9804 20.4099C18.9943 20.474 19.0011 20.5381 19.0081 20.5953C19.0081 20.6095 19.0081 20.6166 19.0081 20.6238C19.0151 20.6879 19.022 20.7521 19.022 20.8091C19.029 20.8875 19.0359 20.966 19.0359 21.0444C19.0359 21.08 19.0359 21.1158 19.0359 21.1585C19.0359 21.1941 19.0429 21.2369 19.0429 21.2725C19.0429 21.3154 19.0359 21.3581 19.0359 21.4009C19.0359 21.4365 19.0359 21.4723 19.0359 21.5008C19.0359 21.5506 19.029 21.5934 19.029 21.6434C19.029 21.6719 19.029 21.7004 19.022 21.736C19.022 21.7859 19.015 21.8359 19.015 21.8929C19.008 21.9143 19.008 21.9356 19.008 21.957C19.0011 22.0141 18.9941 22.064 18.9873 22.121C18.9873 22.1424 18.9873 22.1638 18.9803 22.1853C18.9733 22.2565 18.9594 22.3206 18.9525 22.392V22.3991V22.4063C18.9386 22.4704 18.9246 22.5418 18.9108 22.6059C18.9108 22.613 18.9108 22.6201 18.9108 22.6273C18.8969 22.6914 18.883 22.7556 18.8691 22.8198C18.8691 22.8269 18.8621 22.8411 18.8621 22.8483C18.8483 22.9125 18.8344 22.9766 18.8135 23.0409C18.8135 23.048 18.8135 23.055 18.8135 23.0623C18.7926 23.1335 18.7718 23.1976 18.7579 23.2619C18.751 23.269 18.751 23.2761 18.751 23.2761C18.7301 23.3474 18.7093 23.4186 18.6884 23.49C18.6606 23.5613 18.6398 23.6255 18.612 23.6968C18.5843 23.768 18.5634 23.8394 18.5356 23.9035C18.5078 23.9749 18.48 24.039 18.4523 24.1103H18.4453C18.4174 24.1745 18.3896 24.2458 18.3549 24.3099C18.3479 24.3313 18.341 24.3456 18.334 24.3599C18.3271 24.367 18.3271 24.3741 18.3201 24.3813C17.8685 25.3153 17.2016 26.1351 16.3679 26.7769C16.3123 26.8125 16.2566 26.8553 16.2011 26.8981C16.1873 26.9123 16.1664 26.9195 16.1525 26.9338C16.1038 26.9694 16.0551 27.005 15.9996 27.0406L16.0204 27.0835H16.0274C16.1246 27.0693 16.2219 27.0549 16.3193 27.0406H16.3261C16.5068 27.0121 16.6875 26.9765 16.8681 26.9409C16.9168 26.9338 16.9723 26.9195 17.021 26.9053C17.0556 26.898 17.0835 26.891 17.1183 26.8838C17.1669 26.8766 17.2155 26.8624 17.2641 26.8553C17.3058 26.841 17.3475 26.8339 17.3891 26.8196C18.084 26.6485 18.7579 26.4133 19.404 26.1351C18.2994 27.6824 16.8195 28.9301 15.0895 29.75C15.8885 29.693 16.6875 29.5575 17.4586 29.3294C20.2586 28.4809 22.614 26.5486 24.0244 23.9463C23.7395 25.5933 23.1003 27.1619 22.1554 28.5308C22.8294 28.0745 23.4478 27.5469 24.0105 26.948C25.5668 25.2796 26.5881 23.162 26.9355 20.8876C27.1718 22.0141 27.2413 23.1763 27.137 24.3241C32.1534 17.1444 27.5539 9.70079 25.6294 7.74008C25.6224 7.72583 25.6155 7.71869 25.6155 7.70443C25.6085 7.71156 25.6085 7.71156 25.6085 7.71868C25.6085 7.71154 25.6085 7.71154 25.6015 7.70443C25.6015 7.78999 25.5945 7.87554 25.5876 7.9611C25.5668 8.12509 25.546 8.28194 25.5181 8.4388C25.4834 8.59566 25.4418 8.75252 25.4 8.90938C25.3514 9.0591 25.2959 9.21595 25.2333 9.36569C25.1708 9.50828 25.1013 9.65802 25.0249 9.80062C24.9484 9.93608 24.865 10.0787 24.7748 10.207C24.6844 10.3425 24.5871 10.4708 24.4899 10.592C24.3856 10.7204 24.2745 10.8344 24.1634 10.9485C24.0939 11.0127 24.0313 11.0697 23.9619 11.1268C23.9063 11.1767 23.8576 11.2195 23.802 11.2694C23.677 11.3692 23.5519 11.4619 23.413 11.5474C23.281 11.633 23.142 11.7185 23.003 11.7898C22.8571 11.8611 22.7113 11.9253 22.5654 11.9895C22.4194 12.0465 22.2665 12.0964 22.1138 12.1392C21.9609 12.182 21.801 12.2176 21.6483 12.2462C21.4884 12.2747 21.3286 12.2889 21.1758 12.3032C21.0646 12.3103 20.9534 12.3175 20.8423 12.3175C20.6825 12.3175 20.5226 12.3032 20.3698 12.2889C20.21 12.2747 20.0503 12.2533 19.8974 12.2176C19.7375 12.1891 19.5848 12.1463 19.4319 12.0964H19.4249C19.5778 12.0822 19.7306 12.0679 19.8835 12.0394C20.0433 12.0108 20.1961 11.9752 20.349 11.9324C20.5018 11.8896 20.6546 11.8397 20.8005 11.7827C20.9534 11.7257 21.0993 11.6544 21.2383 11.5831C21.3841 11.5118 21.5161 11.4333 21.6551 11.3478C21.7871 11.2551 21.9191 11.1624 22.0443 11.0626C22.1693 10.9628 22.2874 10.8558 22.3985 10.7417C22.5166 10.6348 22.6209 10.5136 22.7251 10.3924C22.8294 10.264 22.9266 10.1357 23.0169 10.0074C23.0308 9.98597 23.0448 9.95744 23.0586 9.93605C23.1281 9.82198 23.1975 9.7079 23.2601 9.59382C23.3365 9.45122 23.406 9.30863 23.4685 9.1589C23.531 9.00917 23.5866 8.85944 23.6353 8.70259C23.6839 8.55285 23.7186 8.396 23.7534 8.23914C23.7813 8.07515 23.809 7.9183 23.8229 7.76144C23.8368 7.59745 23.8506 7.43346 23.8506 7.27661C23.8506 7.16253 23.8438 7.04845 23.8368 6.93438C23.8229 6.77039 23.802 6.61353 23.7813 6.45668C23.7534 6.29269 23.7186 6.13583 23.677 5.97898C23.6284 5.82925 23.5798 5.67239 23.5241 5.52266C23.4685 5.37294 23.3991 5.2232 23.3296 5.0806C23.2531 4.93801 23.1768 4.79541 23.0934 4.65995C23.003 4.52448 22.9128 4.39614 22.8155 4.2678C22.7113 4.14659 22.607 4.02539 22.4959 3.90418C22.4403 3.84714 22.3778 3.78298 22.3153 3.72594C22.0025 3.47639 21.676 3.2411 21.3495 3.0272C21.3009 2.99868 21.2591 2.9773 21.2105 2.9559C20.9813 2.80618 20.7659 2.7277 20.5505 2.6564Z" fill="#E0234E"/>
</svg>
