<svg width="32" height="32" viewBox="0 0 32 32" fill="none" xmlns="http://www.w3.org/2000/svg">
<path d="M15.1814 3.50671C15.1276 3.5116 14.9565 3.52871 14.8025 3.54092C11.2517 3.86106 7.92571 5.777 5.81916 8.72177C4.64614 10.3591 3.8959 12.2164 3.61241 14.1836C3.51222 14.8704 3.5 15.0732 3.5 16.0042C3.5 16.9354 3.51222 17.1382 3.61241 17.8249C4.29179 22.5194 7.63245 26.4637 12.1633 27.9251C12.9746 28.1866 13.8299 28.365 14.8025 28.4725C15.1814 28.514 16.8186 28.514 17.1975 28.4725C18.8764 28.2867 20.2986 27.8714 21.7014 27.1552C21.9164 27.0454 21.958 27.016 21.9286 26.9916C21.9091 26.9769 20.9926 25.7476 19.893 24.2619L17.894 21.5615L15.389 17.8542C14.0108 15.8161 12.8769 14.1494 12.867 14.1494C12.8573 14.147 12.8475 15.7941 12.8426 17.8054C12.8353 21.3269 12.8329 21.4686 12.7889 21.5516C12.7254 21.6714 12.6765 21.7202 12.5738 21.7741C12.4956 21.8131 12.4272 21.8205 12.0582 21.8205H11.6354L11.523 21.7496C11.4497 21.7032 11.3959 21.6421 11.3592 21.5712L11.3079 21.4612L11.3128 16.5615L11.3201 11.6592L11.3959 11.5639C11.435 11.5126 11.5181 11.4466 11.5767 11.4148C11.6769 11.3659 11.716 11.3611 12.1388 11.3611C12.6374 11.3611 12.7204 11.3806 12.85 11.5224C12.8866 11.5615 14.2429 13.6045 15.8656 16.0654C17.4883 18.5262 19.7073 21.8865 20.7971 23.536L22.7766 26.5346L22.8769 26.4686C23.7639 25.8919 24.7024 25.0707 25.4453 24.2154C27.0264 22.3996 28.0455 20.1856 28.3876 17.8249C28.4878 17.1382 28.5 16.9354 28.5 16.0042C28.5 15.0732 28.4878 14.8704 28.3876 14.1836C27.7083 9.48912 24.3675 5.54484 19.8368 4.08345C19.0376 3.82441 18.1873 3.64601 17.2341 3.53849C16.9995 3.51405 15.3841 3.48716 15.1814 3.50671ZM20.2986 11.0678C20.4159 11.1265 20.5113 11.2389 20.5455 11.3562C20.565 11.4197 20.5699 12.7785 20.565 15.8405L20.5576 20.2345L19.783 19.0467L19.0059 17.8591V14.6651C19.0059 12.6001 19.0156 11.4393 19.0303 11.3831C19.0694 11.2462 19.1549 11.1387 19.2723 11.0751C19.3724 11.0238 19.4091 11.0189 19.7928 11.0189C20.1545 11.0189 20.218 11.0238 20.2986 11.0678Z" fill="white"/>
</svg>
