<svg width="32" height="32" viewBox="0 0 32 32" fill="none" xmlns="http://www.w3.org/2000/svg">
<g clip-path="url(#clip0_188_10)">
<path d="M24.5 0H7.5C3.35786 0 0 3.35786 0 7.5V24.5C0 28.6421 3.35786 32 7.5 32H24.5C28.6421 32 32 28.6421 32 24.5V7.5C32 3.35786 28.6421 0 24.5 0Z" fill="#677EEB"/>
<path fill-rule="evenodd" clip-rule="evenodd" d="M6.58231 20.6479C6.34267 20.2699 6.33906 19.7884 6.57297 19.4067L15.3805 5.03995C15.8704 4.24088 17.0533 4.31074 17.4457 5.16193L25.4918 22.6157C25.7903 23.2634 25.4467 24.0254 24.7635 24.2304L12.2473 27.9852C11.7437 28.1362 11.2011 27.9339 10.9196 27.4897L6.58231 20.6479ZM16.3967 9.2407C16.4815 8.81806 17.0607 8.75711 17.2317 9.15283L22.7818 21.9954C22.8863 22.2372 22.7563 22.5161 22.5038 22.5914L13.856 25.1729C13.5382 25.2677 13.2337 24.99 13.299 24.6647L16.3967 9.2407Z" fill="#F7FAFC"/>
</g>
<defs>
<clipPath id="clip0_188_10">
<rect width="32" height="32" fill="white"/>
</clipPath>
</defs>
</svg>
