<svg width="32" height="32" viewBox="0 0 32 32" fill="none" xmlns="http://www.w3.org/2000/svg">
<path d="M15.5644 18.3689C16.8173 18.3689 17.8329 17.3248 17.8329 16.0369C17.8329 14.749 16.8173 13.7049 15.5644 13.7049C14.3116 13.7049 13.2959 14.749 13.2959 16.0369C13.2959 17.3248 14.3116 18.3689 15.5644 18.3689Z" fill="#00D8FF"/>
<path fill-rule="evenodd" clip-rule="evenodd" d="M15.5644 11.2954C18.6102 11.2954 21.4396 11.7447 23.573 12.4997C26.1434 13.4094 27.7237 14.7882 27.7237 16.0369C27.7237 17.338 26.0489 18.8029 23.2886 19.743C21.2017 20.4537 18.4556 20.8247 15.5644 20.8247C12.6002 20.8247 9.79315 20.4765 7.6828 19.7351C5.01282 18.797 3.40466 17.3132 3.40466 16.0369C3.40466 14.7984 4.91361 13.4301 7.44789 12.5219C9.58921 11.7544 12.4884 11.2954 15.564 11.2954H15.5644Z" stroke="#00D8FF" stroke-width="1.67081"/>
<path fill-rule="evenodd" clip-rule="evenodd" d="M11.5492 13.6797C13.0709 10.9675 14.8628 8.67229 16.5649 7.14964C18.6155 5.31508 20.5671 4.5966 21.6192 5.22029C22.7156 5.87029 23.1133 8.0937 22.5266 11.0214C22.0834 13.2349 21.0238 15.8656 19.5794 18.4404C18.0985 21.0801 16.4028 23.4059 14.724 24.9144C12.5996 26.8234 10.5458 27.5142 9.47023 26.8766C8.42658 26.2584 8.02748 24.2307 8.52815 21.5201C8.95117 19.2297 10.0128 16.4186 11.5487 13.6797H11.5492Z" stroke="#00D8FF" stroke-width="1.67081"/>
<path fill-rule="evenodd" clip-rule="evenodd" d="M11.553 18.4473C10.0271 15.738 8.98823 12.9953 8.55459 10.719C8.03259 7.97636 8.40166 5.87944 9.45281 5.25394C10.5482 4.60204 12.6206 5.35825 14.795 7.34296C16.4389 8.84349 18.1271 11.1007 19.5756 13.6729C21.0608 16.3101 22.1739 18.982 22.6069 21.2305C23.1548 24.076 22.7113 26.2501 21.6368 26.8895C20.5942 27.51 18.6863 26.8531 16.6519 25.0534C14.933 23.5329 13.094 21.1835 11.553 18.4473Z" stroke="#00D8FF" stroke-width="1.67081"/>
</svg>
